<?xml version="1.0" encoding="UTF-8" ?>
<!DOCTYPE svg PUBLIC "-//W3C//DTD SVG 1.1//EN" "http://www.w3.org/Graphics/SVG/1.1/DTD/svg11.dtd">
<svg width="75pt" height="75pt" viewBox="0 0 75 75" version="1.1" xmlns="http://www.w3.org/2000/svg">
  <g transform="translate(0.000000,143.000000) scale(0.100000,-0.100000)"
  fill="#000000" stroke="none">
  <path d="M0 715 l0 -715 1750 0 1750 0 0 715 0 715 -1536 0 c-1225 0 -1535 -3
  -1531 -12 108 -278 456 -1129 471 -1151 31 -44 81 -67 147 -67 76 0 1021 87
  1082 100 54 11 96 31 147 68 33 24 34 24 15 3 -33 -38 -101 -81 -163 -102 -71
  -24 -1153 -127 -1216 -115 -24 5 -53 21 -77 44 -36 34 -60 89 -278 632 l-240
  595 -160 3 -161 2 0 -715z m1879 601 c28 -29 31 -37 22 -55 l-12 -21 -39 20
  -40 20 -6 -26 c-5 -18 -11 -23 -23 -19 -10 4 -8 -1 7 -15 12 -11 22 -25 22
  -29 0 -5 -25 -27 -55 -50 -30 -23 -55 -44 -55 -47 0 -2 10 -8 22 -13 21 -8 19
  -11 -32 -67 -52 -55 -53 -57 -15 -29 22 16 62 46 89 68 45 35 47 39 27 44 -22
  5 -21 7 15 44 35 36 36 39 22 61 -15 24 -13 58 2 58 5 0 7 -7 4 -15 -8 -20 13
  -45 37 -45 11 0 21 -9 25 -24 4 -16 15 -26 34 -30 16 -3 31 -14 35 -25 3 -10
  16 -21 28 -25 l22 -5 -20 -21 c-25 -24 -132 -47 -148 -31 -6 6 -15 11 -21 11
  -5 0 -2 -6 8 -13 17 -12 16 -15 -16 -39 -18 -14 -44 -36 -58 -49 -14 -13 -45
  -41 -69 -61 l-43 -37 33 -14 c19 -7 78 -31 132 -52 72 -29 94 -41 80 -46 -10
  -4 -171 -73 -358 -154 -187 -81 -360 -156 -385 -166 -43 -19 -41 -15 60 81 58
  55 135 128 173 162 37 33 67 64 67 68 0 4 -49 30 -110 56 -60 27 -110 52 -110
  56 0 4 39 35 88 69 48 35 112 82 142 104 184 139 235 173 243 162 6 -8 7 -6 3
  6 -3 10 -1 41 6 70 8 40 19 59 47 83 43 37 69 33 120 -20z"/>
  <path d="M1658 1127 c-14 -12 -105 -78 -202 -146 -97 -68 -176 -127 -176 -131
  0 -3 72 -31 160 -61 88 -30 160 -56 160 -59 0 -3 -92 -65 -205 -139 -113 -74
  -203 -136 -201 -138 2 -2 111 50 242 115 132 65 267 131 302 147 34 16 62 31
  62 35 0 3 -64 28 -142 55 -79 27 -158 55 -176 62 l-34 14 127 134 c117 125
  149 167 83 112z"/>
  </g>
</svg>
